<svg width="26" height="29" viewBox="0 0 26 29" fill="none" xmlns="http://www.w3.org/2000/svg">
<mask id="mask0_29_1639" style="mask-type:alpha" maskUnits="userSpaceOnUse" x="0" y="0" width="26" height="29">
<rect y="0.5" width="26" height="28" fill="#D9D9D9"/>
</mask>
<g mask="url(#mask0_29_1639)">
<path d="M6.49998 26.1668C5.90415 26.1668 5.39408 25.9384 4.96977 25.4814C4.54547 25.0245 4.33331 24.4752 4.33331 23.8335V5.16683C4.33331 4.52516 4.54547 3.97586 4.96977 3.51891C5.39408 3.06197 5.90415 2.8335 6.49998 2.8335H15.1666L21.6666 9.8335V23.8335C21.6666 24.4752 21.4545 25.0245 21.0302 25.4814C20.6059 25.9384 20.0958 26.1668 19.5 26.1668H6.49998ZM14.0833 11.0002V5.16683H6.49998V23.8335H19.5V11.0002H14.0833Z" fill="#1C1B1F" fill-opacity="0.72"/>
</g>
</svg>
