<svg width="24" height="24" viewBox="0 0 24 24" fill="none" xmlns="http://www.w3.org/2000/svg">
<path d="M6.16659 19.0002C5.83603 19.0002 5.55895 18.8884 5.33534 18.6647C5.11172 18.4411 4.99992 18.1641 4.99992 17.8335V15.5002H20.1666V5.00016H22.4999C22.8305 5.00016 23.1076 5.11197 23.3312 5.33558C23.5548 5.55919 23.6666 5.83627 23.6666 6.16683V23.6668L18.9999 19.0002H6.16659ZM0.333252 17.8335V1.50016C0.333252 1.16961 0.445058 0.892524 0.668669 0.668913C0.89228 0.445302 1.16936 0.333496 1.49992 0.333496H16.6666C16.9971 0.333496 17.2742 0.445302 17.4978 0.668913C17.7214 0.892524 17.8333 1.16961 17.8333 1.50016V12.0002C17.8333 12.3307 17.7214 12.6078 17.4978 12.8314C17.2742 13.055 16.9971 13.1668 16.6666 13.1668H4.99992L0.333252 17.8335ZM15.4999 10.8335V2.66683H2.66659V12.146L4.00825 10.8335H15.4999Z" fill="#1C1B1F" fill-opacity="0.72"/>
</svg>
