<svg width="26" height="20" viewBox="0 0 26 20" fill="none" xmlns="http://www.w3.org/2000/svg">
<path d="M0.166626 19.3332V16.0665C0.166626 15.4054 0.336765 14.7978 0.677043 14.2436C1.01732 13.6894 1.4694 13.2665 2.03329 12.9748C3.23885 12.3721 4.46385 11.92 5.70829 11.6186C6.95274 11.3172 8.21663 11.1665 9.49996 11.1665C10.7833 11.1665 12.0472 11.3172 13.2916 11.6186C14.5361 11.92 15.7611 12.3721 16.9666 12.9748C17.5305 13.2665 17.9826 13.6894 18.3229 14.2436C18.6632 14.7978 18.8333 15.4054 18.8333 16.0665V19.3332H0.166626ZM21.1666 19.3332V15.8332C21.1666 14.9776 20.9284 14.1561 20.452 13.3686C19.9757 12.5811 19.3 11.9054 18.425 11.3415C19.4166 11.4582 20.35 11.6575 21.225 11.9394C22.1 12.2214 22.9166 12.5665 23.675 12.9748C24.375 13.3637 24.9097 13.7964 25.2791 14.2728C25.6486 14.7491 25.8333 15.2693 25.8333 15.8332V19.3332H21.1666ZM9.49996 9.99984C8.21663 9.99984 7.11802 9.54289 6.20413 8.629C5.29024 7.71512 4.83329 6.6165 4.83329 5.33317C4.83329 4.04984 5.29024 2.95123 6.20413 2.03734C7.11802 1.12345 8.21663 0.666504 9.49996 0.666504C10.7833 0.666504 11.8819 1.12345 12.7958 2.03734C13.7097 2.95123 14.1666 4.04984 14.1666 5.33317C14.1666 6.6165 13.7097 7.71512 12.7958 8.629C11.8819 9.54289 10.7833 9.99984 9.49996 9.99984ZM21.1666 5.33317C21.1666 6.6165 20.7097 7.71512 19.7958 8.629C18.8819 9.54289 17.7833 9.99984 16.5 9.99984C16.2861 9.99984 16.0138 9.97553 15.6833 9.92692C15.3527 9.87831 15.0805 9.82484 14.8666 9.7665C15.3916 9.14428 15.7951 8.454 16.077 7.69567C16.359 6.93734 16.5 6.14984 16.5 5.33317C16.5 4.5165 16.359 3.729 16.077 2.97067C15.7951 2.21234 15.3916 1.52206 14.8666 0.899837C15.1388 0.802615 15.4111 0.739421 15.6833 0.710254C15.9555 0.681087 16.2277 0.666504 16.5 0.666504C17.7833 0.666504 18.8819 1.12345 19.7958 2.03734C20.7097 2.95123 21.1666 4.04984 21.1666 5.33317ZM2.49996 16.9998H16.5V16.0665C16.5 15.8526 16.4465 15.6582 16.3395 15.4832C16.2326 15.3082 16.0916 15.1721 15.9166 15.0748C14.8666 14.5498 13.8069 14.1561 12.7375 13.8936C11.668 13.6311 10.5888 13.4998 9.49996 13.4998C8.41107 13.4998 7.3319 13.6311 6.26246 13.8936C5.19302 14.1561 4.13329 14.5498 3.08329 15.0748C2.90829 15.1721 2.76732 15.3082 2.66038 15.4832C2.55343 15.6582 2.49996 15.8526 2.49996 16.0665V16.9998ZM9.49996 7.6665C10.1416 7.6665 10.6909 7.43803 11.1479 6.98109C11.6048 6.52414 11.8333 5.97484 11.8333 5.33317C11.8333 4.6915 11.6048 4.1422 11.1479 3.68525C10.6909 3.22831 10.1416 2.99984 9.49996 2.99984C8.85829 2.99984 8.30899 3.22831 7.85204 3.68525C7.3951 4.1422 7.16663 4.6915 7.16663 5.33317C7.16663 5.97484 7.3951 6.52414 7.85204 6.98109C8.30899 7.43803 8.85829 7.6665 9.49996 7.6665Z" fill="#1C1B1F" fill-opacity="0.72"/>
</svg>
