<svg width="26" height="24" viewBox="0 0 26 24" fill="none" xmlns="http://www.w3.org/2000/svg">
<path d="M11.75 17.8335H14.25V10.8335H11.75V17.8335ZM13 8.50016C13.3542 8.50016 13.651 8.38836 13.8906 8.16475C14.1302 7.94113 14.25 7.66405 14.25 7.3335C14.25 7.00294 14.1302 6.72586 13.8906 6.50225C13.651 6.27863 13.3542 6.16683 13 6.16683C12.6458 6.16683 12.349 6.27863 12.1094 6.50225C11.8698 6.72586 11.75 7.00294 11.75 7.3335C11.75 7.66405 11.8698 7.94113 12.1094 8.16475C12.349 8.38836 12.6458 8.50016 13 8.50016ZM13 23.6668C11.2708 23.6668 9.64583 23.3606 8.125 22.7481C6.60417 22.1356 5.28125 21.3043 4.15625 20.2543C3.03125 19.2043 2.14063 17.9696 1.48438 16.5502C0.828125 15.1307 0.5 13.6141 0.5 12.0002C0.5 10.3863 0.828125 8.86961 1.48438 7.45016C2.14063 6.03072 3.03125 4.796 4.15625 3.746C5.28125 2.696 6.60417 1.86475 8.125 1.25225C9.64583 0.639746 11.2708 0.333496 13 0.333496C14.7292 0.333496 16.3542 0.639746 17.875 1.25225C19.3958 1.86475 20.7188 2.696 21.8438 3.746C22.9688 4.796 23.8594 6.03072 24.5156 7.45016C25.1719 8.86961 25.5 10.3863 25.5 12.0002C25.5 13.6141 25.1719 15.1307 24.5156 16.5502C23.8594 17.9696 22.9688 19.2043 21.8438 20.2543C20.7188 21.3043 19.3958 22.1356 17.875 22.7481C16.3542 23.3606 14.7292 23.6668 13 23.6668ZM13 21.3335C15.7917 21.3335 18.1562 20.4293 20.0938 18.621C22.0312 16.8127 23 14.6057 23 12.0002C23 9.39461 22.0312 7.18766 20.0938 5.37933C18.1562 3.571 15.7917 2.66683 13 2.66683C10.2083 2.66683 7.84375 3.571 5.90625 5.37933C3.96875 7.18766 3 9.39461 3 12.0002C3 14.6057 3.96875 16.8127 5.90625 18.621C7.84375 20.4293 10.2083 21.3335 13 21.3335Z" fill="#1C1B1F" fill-opacity="0.72"/>
</svg>
