<svg width="15" height="20" viewBox="0 0 15 20" fill="none" xmlns="http://www.w3.org/2000/svg">
<path d="M4.06024 12.4075L4.19035 12.5H4.35H10.65H10.8097L10.9398 12.4075C11.7514 11.8303 12.3845 11.1125 12.8309 10.2561C13.2771 9.40004 13.5 8.4789 13.5 7.5C13.5 5.83651 12.9157 4.4086 11.7536 3.24645C10.5914 2.08429 9.16349 1.5 7.5 1.5C5.83651 1.5 4.4086 2.08429 3.24645 3.24645C2.08429 4.4086 1.5 5.83651 1.5 7.5C1.5 8.4789 1.72287 9.40004 2.16912 10.2561C2.61554 11.1125 3.24859 11.8303 4.06024 12.4075ZM7.5 19.5C7.08366 19.5 6.7397 19.3576 6.44105 19.0589C6.27108 18.889 6.15172 18.7043 6.08041 18.5H8.91959C8.84828 18.7043 8.72892 18.889 8.55895 19.0589C8.2603 19.3576 7.91634 19.5 7.5 19.5ZM4 16.5V15.5H11V16.5H4ZM3.88964 13.5C2.86656 12.8678 2.05302 12.035 1.44371 10.9969C0.814336 9.92464 0.5 8.76218 0.5 7.5C0.5 5.54776 1.17755 3.90455 2.54105 2.54105C3.90455 1.17755 5.54776 0.5 7.5 0.5C9.45224 0.5 11.0954 1.17755 12.4589 2.54105C13.8224 3.90455 14.5 5.54776 14.5 7.5C14.5 8.76218 14.1857 9.92464 13.5563 10.9969C12.947 12.035 12.1334 12.8678 11.1104 13.5H3.88964Z" fill="#FBBC04" stroke="#FBBC04"/>
</svg>
