<svg width="36" height="32" viewBox="0 0 36 32" fill="none" xmlns="http://www.w3.org/2000/svg">
<mask id="mask0_1475_295" style="mask-type:alpha" maskUnits="userSpaceOnUse" x="0" y="0" width="36" height="32">
<rect x="0.5" width="35" height="32" fill="#D9D9D9"/>
</mask>
<g mask="url(#mask0_1475_295)">
<path d="M7.79167 25.3332H9.83333L22.4115 13.8332L20.3698 11.9665L7.79167 23.4665V25.3332ZM28.6458 11.8998L22.4479 6.29984L24.4896 4.43317C25.0486 3.92206 25.7352 3.6665 26.5495 3.6665C27.3637 3.6665 28.0503 3.92206 28.6094 4.43317L30.651 6.29984C31.2101 6.81095 31.5017 7.42761 31.526 8.14984C31.5503 8.87206 31.283 9.48873 30.724 9.99984L28.6458 11.8998ZM26.5312 13.8665L11.0729 27.9998H4.875V22.3332L20.3333 8.19984L26.5312 13.8665Z" fill="#1C1B1F" fill-opacity="0.72"/>
</g>
</svg>
