<svg width="31" height="36" viewBox="0 0 31 36" fill="none" xmlns="http://www.w3.org/2000/svg">
<mask id="mask0_1475_314" style="mask-type:alpha" maskUnits="userSpaceOnUse" x="0" y="0" width="31" height="36">
<rect width="31" height="36" fill="#D9D9D9"/>
</mask>
<g mask="url(#mask0_1475_314)">
<path d="M1.29175 30V25.8C1.29175 24.95 1.48012 24.1687 1.85685 23.4562C2.23359 22.7437 2.73411 22.2 3.35841 21.825C4.69314 21.05 6.04939 20.4688 7.42716 20.0812C8.80494 19.6937 10.2042 19.5 11.6251 19.5C13.0459 19.5 14.4452 19.6937 15.823 20.0812C17.2008 20.4688 18.557 21.05 19.8917 21.825C20.5161 22.2 21.0166 22.7437 21.3933 23.4562C21.77 24.1687 21.9584 24.95 21.9584 25.8V30H1.29175ZM24.5417 30V25.5C24.5417 24.4 24.278 23.3438 23.7506 22.3312C23.2232 21.3187 22.4751 20.45 21.5063 19.725C22.6042 19.875 23.6376 20.1313 24.6063 20.4938C25.5751 20.8563 26.4792 21.3 27.3188 21.825C28.0938 22.325 28.6858 22.8813 29.0949 23.4938C29.5039 24.1063 29.7084 24.775 29.7084 25.5V30H24.5417ZM11.6251 18C10.2042 18 8.98793 17.4125 7.97612 16.2375C6.96432 15.0625 6.45841 13.65 6.45841 12C6.45841 10.35 6.96432 8.9375 7.97612 7.7625C8.98793 6.5875 10.2042 6 11.6251 6C13.0459 6 14.2622 6.5875 15.274 7.7625C16.2858 8.9375 16.7917 10.35 16.7917 12C16.7917 13.65 16.2858 15.0625 15.274 16.2375C14.2622 17.4125 13.0459 18 11.6251 18ZM24.5417 12C24.5417 13.65 24.0358 15.0625 23.024 16.2375C22.0122 17.4125 20.7959 18 19.3751 18C19.1383 18 18.8369 17.9688 18.4709 17.9062C18.1049 17.8438 17.8036 17.775 17.5667 17.7C18.148 16.9 18.5947 16.0125 18.9069 15.0375C19.219 14.0625 19.3751 13.05 19.3751 12C19.3751 10.95 19.219 9.9375 18.9069 8.9625C18.5947 7.9875 18.148 7.1 17.5667 6.3C17.8681 6.175 18.1695 6.09375 18.4709 6.05625C18.7723 6.01875 19.0737 6 19.3751 6C20.7959 6 22.0122 6.5875 23.024 7.7625C24.0358 8.9375 24.5417 10.35 24.5417 12ZM3.87508 27H19.3751V25.8C19.3751 25.525 19.3159 25.275 19.1975 25.05C19.0791 24.825 18.923 24.65 18.7292 24.525C17.5667 23.85 16.3935 23.3438 15.2095 23.0063C14.0254 22.6688 12.8306 22.5 11.6251 22.5C10.4195 22.5 9.22473 22.6688 8.04071 23.0063C6.85668 23.3438 5.68341 23.85 4.52091 24.525C4.32716 24.65 4.17109 24.825 4.05269 25.05C3.93428 25.275 3.87508 25.525 3.87508 25.8V27ZM11.6251 15C12.3355 15 12.9437 14.7063 13.4496 14.1187C13.9555 13.5312 14.2084 12.825 14.2084 12C14.2084 11.175 13.9555 10.4688 13.4496 9.88125C12.9437 9.29375 12.3355 9 11.6251 9C10.9147 9 10.3065 9.29375 9.8006 9.88125C9.2947 10.4688 9.04175 11.175 9.04175 12C9.04175 12.825 9.2947 13.5312 9.8006 14.1187C10.3065 14.7063 10.9147 15 11.6251 15Z" fill="#2684FC"/>
</g>
</svg>
