<svg width="31" height="28" viewBox="0 0 31 28" fill="none" xmlns="http://www.w3.org/2000/svg">
<mask id="mask0_27_326" style="mask-type:alpha" maskUnits="userSpaceOnUse" x="0" y="0" width="31" height="28">
<rect width="31" height="28" fill="#D9D9D9"/>
</mask>
<g mask="url(#mask0_27_326)">
<path d="M18.4063 24.9668C17.9112 25.4141 17.2976 25.6377 16.5657 25.6377C15.8337 25.6377 15.2202 25.4141 14.725 24.9668L3.35837 14.7002C3.12157 14.4863 2.9332 14.2335 2.79327 13.9418C2.65334 13.6502 2.58337 13.3391 2.58337 13.0085V4.66683C2.58337 4.02516 2.83633 3.47586 3.34223 3.01891C3.84813 2.56197 4.45629 2.3335 5.16671 2.3335H14.4021C14.7681 2.3335 15.1125 2.39669 15.4355 2.52308C15.7584 2.64947 16.0382 2.81961 16.275 3.0335L27.6417 13.3293C28.1368 13.7766 28.3844 14.3259 28.3844 14.9772C28.3844 15.6286 28.1368 16.1779 27.6417 16.6252L18.4063 24.9668ZM16.5657 23.3335L25.8011 14.9918L14.4021 4.66683H5.16671V13.0085L16.5657 23.3335ZM8.39587 9.3335C8.93407 9.3335 9.39153 9.16336 9.76827 8.82308C10.145 8.4828 10.3334 8.06961 10.3334 7.5835C10.3334 7.09738 10.145 6.68419 9.76827 6.34391C9.39153 6.00363 8.93407 5.8335 8.39587 5.8335C7.85768 5.8335 7.40021 6.00363 7.02348 6.34391C6.64674 6.68419 6.45837 7.09738 6.45837 7.5835C6.45837 8.06961 6.64674 8.4828 7.02348 8.82308C7.40021 9.16336 7.85768 9.3335 8.39587 9.3335Z" fill="#1C1B1F"/>
</g>
</svg>
