<svg width="29" height="29" viewBox="0 0 29 29" fill="none" xmlns="http://www.w3.org/2000/svg">
<mask id="mask0_29_1617" style="mask-type:alpha" maskUnits="userSpaceOnUse" x="0" y="0" width="29" height="29">
<rect x="0.5" width="28" height="29" fill="#D9D9D9"/>
</mask>
<g mask="url(#mask0_29_1617)">
<path d="M6.33333 25.375C5.69167 25.375 5.14236 25.1384 4.68542 24.6651C4.22847 24.1918 4 23.6229 4 22.9583V6.04167C4 5.37708 4.22847 4.80816 4.68542 4.3349C5.14236 3.86163 5.69167 3.625 6.33333 3.625H22.6667C23.3083 3.625 23.8576 3.86163 24.3146 4.3349C24.7715 4.80816 25 5.37708 25 6.04167V22.9583C25 23.6229 24.7715 24.1918 24.3146 24.6651C23.8576 25.1384 23.3083 25.375 22.6667 25.375H6.33333ZM6.33333 22.9583H22.6667V19.3333H19.1667C18.5833 20.0986 17.8882 20.6927 17.0813 21.1156C16.2743 21.5385 15.4139 21.75 14.5 21.75C13.5861 21.75 12.7257 21.5385 11.9187 21.1156C11.1118 20.6927 10.4167 20.0986 9.83333 19.3333H6.33333V22.9583ZM14.5 19.3333C15.2389 19.3333 15.9097 19.1118 16.5125 18.6687C17.1153 18.2257 17.5333 17.6417 17.7667 16.9167H22.6667V6.04167H6.33333V16.9167H11.2333C11.4667 17.6417 11.8847 18.2257 12.4875 18.6687C13.0903 19.1118 13.7611 19.3333 14.5 19.3333Z" fill="#1C1B1F"/>
</g>
</svg>
